<svg xmlns="http://www.w3.org/2000/svg" viewBox="0 0 400 120" width="400" height="120">   <defs>     <linearGradient id="bg" x1="0%" y1="0%" x2="100%" y2="100%">       <stop offset="0%" style="stop-color:#070910"/>       <stop offset="100%" style="stop-color:#0f1117"/>     </linearGradient>     <linearGradient id="ambar" x1="0%" y1="0%" x2="100%" y2="100%">       <stop offset="0%" style="stop-color:#f5c842"/>       <stop offset="100%" style="stop-color:#e8a020"/>     </linearGradient>     <linearGradient id="ambarH" x1="0%" y1="0%" x2="100%" y2="0%">       <stop offset="0%" style="stop-color:#f5c842"/>       <stop offset="100%" style="stop-color:#e8a020"/>     </linearGradient>     <filter id="glow">       <feGaussianBlur stdDeviation="2.5" result="blur"/>       <feMerge><feMergeNode in="blur"/><feMergeNode in="SourceGraphic"/></feMerge>     </filter>   </defs>   <rect width="400" height="120" rx="16" fill="url(#bg)"/>   <rect width="400" height="120" rx="16" fill="none" stroke="#232839" stroke-width="1"/>   <rect x="16" y="50" width="56" height="44" rx="8" fill="#1d1a08" stroke="#f5c842" stroke-width="1.5"/>   <rect x="16" y="50" width="56" height="3" rx="1.5" fill="url(#ambarH)"/>   <path d="M 32 50 Q 32 24 48 24 Q 63 24 65 36" fill="none" stroke="#1a1400" stroke-width="7" stroke-linecap="round"/>   <path d="M 32 50 Q 32 24 48 24 Q 63 24 65 34" fill="none" stroke="url(#ambar)" stroke-width="5" stroke-linecap="round" filter="url(#glow)"/>   <circle cx="65" cy="34" r="5" fill="#1d1a08" stroke="#f5c842" stroke-width="2.5" filter="url(#glow)"/>   <circle cx="65" cy="34" r="2.5" fill="#f5c842"/>   <circle cx="44" cy="68" r="9" fill="#0f1117" stroke="#2a2200" stroke-width="1.5"/>   <circle cx="44" cy="68" r="5" fill="#f5c842" filter="url(#glow)"/>   <rect x="41.5" y="70" width="5" height="9" rx="2.5" fill="#f5c842"/>   <rect x="22" y="92" width="12" height="4" rx="2" fill="#2a2200"/>   <rect x="54" y="92" width="12" height="4" rx="2" fill="#2a2200"/>   <text x="90" y="57" font-family="'Sora','Inter',system-ui,sans-serif" font-weight="800" font-size="32" letter-spacing="-1" fill="#f5c842" filter="url(#glow)">COFRE</text>   <text x="90" y="86" font-family="'Sora','Inter',system-ui,sans-serif" font-weight="800" font-size="32" letter-spacing="-1" fill="#f0f3fa">ABERTO</text>   <line x1="283" y1="36" x2="283" y2="92" stroke="#232839" stroke-width="1"/>   <rect x="293" y="56" width="38" height="22" rx="6" fill="#251e08" stroke="#f5c842" stroke-width="1.5"/>   <text x="312" y="72" font-family="'Sora','Inter',system-ui,sans-serif" font-weight="800" font-size="13" text-anchor="middle" fill="#f5c842">MS</text>   <text x="90" y="106" font-family="'Inter',system-ui,sans-serif" font-weight="500" font-size="11" letter-spacing="1.5" fill="#6b5c20">TRANSPARÊNCIA PÚBLICA</text> </svg>
