<svg xmlns="http://www.w3.org/2000/svg" viewBox="0 0 400 120" width="400" height="120">   <defs>     <linearGradient id="bg" x1="0%" y1="0%" x2="100%" y2="100%">       <stop offset="0%" style="stop-color:#070910"/>       <stop offset="100%" style="stop-color:#0f1117"/>     </linearGradient>     <linearGradient id="accent" x1="0%" y1="0%" x2="100%" y2="100%">       <stop offset="0%" style="stop-color:#4d7dff"/>       <stop offset="100%" style="stop-color:#2dd4a0"/>     </linearGradient>     <linearGradient id="accentH" x1="0%" y1="0%" x2="100%" y2="0%">       <stop offset="0%" style="stop-color:#4d7dff"/>       <stop offset="100%" style="stop-color:#2dd4a0"/>     </linearGradient>     <filter id="glow">       <feGaussianBlur stdDeviation="2.5" result="blur"/>       <feMerge><feMergeNode in="blur"/><feMergeNode in="SourceGraphic"/></feMerge>     </filter>   </defs>   <rect width="400" height="120" rx="16" fill="url(#bg)"/>   <rect width="400" height="120" rx="16" fill="none" stroke="#232839" stroke-width="1"/>   <rect x="16" y="48" width="56" height="46" rx="8" fill="#161a23" stroke="#232839" stroke-width="1.5"/>   <rect x="16" y="48" width="56" height="3" rx="1.5" fill="url(#accentH)"/>   <path d="M 32 48 Q 32 22 48 22 Q 62 22 64 34" fill="none" stroke="#232839" stroke-width="5" stroke-linecap="round"/>   <path d="M 32 48 Q 32 22 48 22 Q 62 22 64 32" fill="none" stroke="url(#accent)" stroke-width="3.5" stroke-linecap="round" filter="url(#glow)"/>   <circle cx="64" cy="32" r="4" fill="#161a23" stroke="url(#accent)" stroke-width="2.5" filter="url(#glow)"/>   <circle cx="44" cy="67" r="8" fill="#0f1117" stroke="#232839" stroke-width="1.5"/>   <circle cx="44" cy="67" r="4" fill="url(#accent)" filter="url(#glow)"/>   <rect x="41.5" y="68" width="5" height="8" rx="2" fill="url(#accent)"/>   <text x="90" y="57" font-family="'Sora','Inter',system-ui,sans-serif" font-weight="800" font-size="32" letter-spacing="-1" fill="url(#accent)" filter="url(#glow)">COFRE</text>   <text x="90" y="86" font-family="'Sora','Inter',system-ui,sans-serif" font-weight="800" font-size="32" letter-spacing="-1" fill="#f0f3fa">ABERTO</text>   <line x1="283" y1="36" x2="283" y2="92" stroke="#232839" stroke-width="1"/>   <rect x="293" y="56" width="38" height="22" rx="6" fill="#0d1830" stroke="#4d7dff" stroke-width="1.5"/>   <text x="312" y="72" font-family="'Sora','Inter',system-ui,sans-serif" font-weight="800" font-size="13" text-anchor="middle" fill="#4d7dff">MS</text>   <text x="90" y="106" font-family="'Inter',system-ui,sans-serif" font-weight="500" font-size="11" letter-spacing="1.5" fill="#454d60">TRANSPARÊNCIA PÚBLICA</text> </svg>
