<svg xmlns="http://www.w3.org/2000/svg" viewBox="0 0 400 120" width="400" height="120">
  <defs>
    <linearGradient id="bg" x1="0%" y1="0%" x2="100%" y2="100%">
      <stop offset="0%" style="stop-color:#070910"/>
      <stop offset="100%" style="stop-color:#0f1117"/>
    </linearGradient>
    <linearGradient id="accent" x1="0%" y1="0%" x2="100%" y2="100%">
      <stop offset="0%" style="stop-color:#4d7dff"/>
      <stop offset="100%" style="stop-color:#2dd4a0"/>
    </linearGradient>
    <linearGradient id="accentH" x1="0%" y1="0%" x2="100%" y2="0%">
      <stop offset="0%" style="stop-color:#4d7dff"/>
      <stop offset="100%" style="stop-color:#2dd4a0"/>
    </linearGradient>
    <filter id="glow">
      <feGaussianBlur stdDeviation="3" result="blur"/>
      <feMerge><feMergeNode in="blur"/><feMergeNode in="SourceGraphic"/></feMerge>
    </filter>
  </defs>

  <!-- Fundo -->
  <rect width="400" height="120" rx="16" fill="url(#bg)"/>
  <rect width="400" height="120" rx="16" fill="none" stroke="#232839" stroke-width="1"/>

  <!-- Ícone: cofre/cadeado estilizado -->
  <!-- Corpo do cofre -->
  <rect x="18" y="28" width="64" height="64" rx="10" fill="#161a23" stroke="#232839" stroke-width="1.5"/>
  <!-- Linha accent no topo do cofre -->
  <rect x="18" y="28" width="64" height="3" rx="1.5" fill="url(#accentH)"/>

  <!-- Dobradiça esquerda -->
  <rect x="14" y="42" width="6" height="10" rx="3" fill="#232839"/>
  <rect x="14" y="68" width="6" height="10" rx="3" fill="#232839"/>

  <!-- Círculo central do cofre -->
  <circle cx="50" cy="62" r="18" fill="#0f1117" stroke="#232839" stroke-width="1.5"/>
  <circle cx="50" cy="62" r="12" fill="none" stroke="url(#accent)" stroke-width="2" filter="url(#glow)"/>
  <circle cx="50" cy="62" r="4" fill="url(#accent)"/>

  <!-- Traços do dial do cofre -->
  <line x1="50" y1="46" x2="50" y2="50" stroke="#232839" stroke-width="2" stroke-linecap="round"/>
  <line x1="50" y1="74" x2="50" y2="78" stroke="#232839" stroke-width="2" stroke-linecap="round"/>
  <line x1="34" y1="62" x2="38" y2="62" stroke="#232839" stroke-width="2" stroke-linecap="round"/>
  <line x1="62" y1="62" x2="66" y2="62" stroke="#232839" stroke-width="2" stroke-linecap="round"/>

  <!-- Maçaneta direita -->
  <rect x="79" y="59" width="8" height="6" rx="3" fill="#232839"/>

  <!-- Pé do cofre -->
  <rect x="26" y="90" width="14" height="4" rx="2" fill="#1d2230"/>
  <rect x="60" y="90" width="14" height="4" rx="2" fill="#1d2230"/>

  <!-- Textos -->
  <!-- COFRE -->
  <text x="102" y="58"
    font-family="'Sora', 'Inter', system-ui, sans-serif"
    font-weight="800"
    font-size="32"
    letter-spacing="-1"
    fill="url(#accent)"
    filter="url(#glow)">COFRE</text>

  <!-- ABERTO -->
  <text x="102" y="86"
    font-family="'Sora', 'Inter', system-ui, sans-serif"
    font-weight="800"
    font-size="32"
    letter-spacing="-1"
    fill="#f0f3fa">ABERTO</text>

  <!-- MS badge -->
  <rect x="304" y="68" width="38" height="22" rx="6" fill="#0d1830" stroke="#4d7dff" stroke-width="1.5"/>
  <text x="323" y="84"
    font-family="'Sora', 'Inter', system-ui, sans-serif"
    font-weight="800"
    font-size="13"
    text-anchor="middle"
    fill="#4d7dff">MS</text>

  <!-- Linha decorativa separando texto do badge -->
  <line x1="294" y1="40" x2="294" y2="92" stroke="#232839" stroke-width="1"/>

  <!-- Tagline -->
  <text x="102" y="106"
    font-family="'Inter', system-ui, sans-serif"
    font-weight="500"
    font-size="11"
    letter-spacing="1.5"
    fill="#454d60">TRANSPARÊNCIA PÚBLICA</text>

</svg>
